<svg width="73" height="56" viewBox="0 0 73 56" fill="none" xmlns="http://www.w3.org/2000/svg"><g clip-path="url(#clip0_175_15)"><path d="M73 38.9156H1.39929V56H73V38.9156Z" fill="#336AE5"/><path d="M18.3332 16.6514C20.3238 14.9943 21.5964 12.4926 21.5964 9.69148C21.5964 4.72012 17.5992 0.673539 12.6885 0.673539H3.06257L1.28839 3.15922H12.6885C16.2474 3.15922 19.141 6.08858 19.141 9.69148C19.141 11.4983 18.4124 13.134 17.2401 14.3154C17.1398 14.4223 17.0342 14.5185 16.9286 14.6147C16.9233 14.6201 16.9128 14.6254 16.9075 14.6308C16.8019 14.7217 16.691 14.8125 16.5801 14.8981C16.5115 14.9515 16.4428 14.9996 16.3742 15.0477C15.6561 15.5342 14.8165 15.8709 13.9505 16.1008C13.7552 16.1543 13.5651 16.197 13.3697 16.2398C13.3433 16.2451 13.3169 16.2505 13.2905 16.2558C13.0898 16.2986 12.8892 16.336 12.6885 16.3627C11.7486 16.5124 10.8352 16.5605 10.0801 16.5659C8.95537 16.5659 8.16861 16.4643 8.12108 16.459L8.40622 15.8977L13.1532 6.52692L13.4014 6.04047H11.1414L11.0411 6.17946L3.69092 16.4643C2.42893 16.4643 1.53656 16.4696 1.53656 16.4696C1.526 16.4696 1.19863 16.4696 0.860687 16.5445C0.110886 16.7102 0 17.1165 0 17.341C0 17.5655 0.110886 17.9717 0.860687 18.1375C1.19335 18.2123 1.52072 18.2123 1.53656 18.2123C1.53656 18.2123 2.42893 18.2123 3.69092 18.2176L11.0358 28.5025L11.1361 28.6415H13.3961L13.1479 28.155L8.1158 18.223C8.93953 18.223 9.17186 18.223 9.68933 18.2123H9.90582C9.94806 18.2123 9.99559 18.2123 10.0431 18.207C10.814 18.207 11.7434 18.2283 12.7097 18.2818C13.0476 18.2978 13.3855 18.3192 13.7235 18.3459C13.7393 18.3459 13.7552 18.3459 13.771 18.3459C14.1195 18.3727 14.468 18.4047 14.8059 18.4422C15.0963 18.4742 15.3762 18.5116 15.6508 18.5491C15.7669 18.5651 15.8831 18.5865 15.9993 18.6025C16.0098 18.6025 16.0204 18.6025 16.0257 18.6025C16.1366 18.6239 16.2474 18.6399 16.3531 18.6613C16.3689 18.6613 16.3795 18.6667 16.3953 18.672C16.4956 18.6934 16.5959 18.7148 16.6963 18.7308C16.7174 18.7308 16.7385 18.7415 16.7596 18.7469C16.8494 18.7682 16.9339 18.7896 17.0184 18.811C17.0501 18.8163 17.0765 18.827 17.1029 18.8324C17.1768 18.8538 17.2507 18.8698 17.3193 18.8912C17.3616 18.9019 17.3986 18.9179 17.4355 18.9286C17.4936 18.9446 17.5517 18.966 17.6045 18.9821C17.6573 18.9981 17.6995 19.0195 17.7523 19.0355C17.7893 19.0515 17.8315 19.0622 17.8685 19.0783C17.953 19.1157 18.0269 19.1478 18.1008 19.1852C20.44 20.1688 22.0875 22.5048 22.0875 25.2257C22.0875 28.8286 19.1939 31.7579 15.6297 31.7579H1.26727L2.9992 34.1795L3.04145 34.2436H15.6297C20.5403 34.2436 24.5375 30.197 24.5375 25.2257C24.5375 21.2058 21.9238 17.7953 18.3332 16.63" fill="#336AE5"/><path d="M46.2078 15.0424C45.231 14.0053 44.0535 13.1982 42.6595 12.6155C41.2708 12.0328 39.7131 11.7442 37.9864 11.7442C36.6452 11.7442 35.3357 12.0168 34.0579 12.5674C32.7801 13.118 31.724 13.8931 30.895 14.8981L30.7999 14.8018L32.9596 3.5441H47.6282V0.726995H30.8527L27.5948 18.3406H30.1821C31.0112 17.047 32.0831 16.0527 33.3926 15.3578C34.7021 14.6628 36.1278 14.3154 37.659 14.3154C38.9052 14.3154 40.0563 14.5399 41.1123 14.9943C42.1684 15.4486 43.0713 16.0687 43.8211 16.8599C44.5709 17.651 45.1623 18.5811 45.5953 19.6502C46.0283 20.7194 46.2448 21.8847 46.2448 23.1462C46.2448 24.4078 46.0547 25.5464 45.6692 26.6636C45.2838 27.7808 44.7241 28.7644 43.9901 29.625C43.2561 30.4803 42.3743 31.1646 41.3552 31.6617C40.3309 32.1642 39.1639 32.4154 37.8544 32.4154C36.7033 32.4154 35.6314 32.2283 34.644 31.8595C33.6513 31.4906 32.7906 30.9561 32.0567 30.2612C31.3227 29.5662 30.7366 28.7323 30.3089 27.7594C29.8759 26.7866 29.6436 25.7228 29.6119 24.5575H26.5916C26.6232 26.1772 26.9295 27.6312 27.4998 28.9248C28.0753 30.2184 28.8515 31.3089 29.8231 32.2016C30.7947 33.0943 31.9458 33.7732 33.2764 34.2383C34.6018 34.7087 36.0485 34.9439 37.6168 34.9439C39.185 34.9439 40.7269 34.6606 42.1473 34.0939C43.5677 33.5273 44.8085 32.7362 45.8646 31.7152C46.9207 30.6942 47.7497 29.4807 48.3569 28.0748C48.9641 26.669 49.2651 25.1401 49.2651 23.4884C49.2651 21.8366 49.0011 20.1955 48.4731 18.7575C47.945 17.3196 47.1952 16.0794 46.2184 15.0424" fill="#336AE5"/><path d="M54.3553 31.4479C54.5453 30.3146 55.0259 29.2722 55.7915 28.3154C56.5571 27.3639 57.4442 26.4819 58.4528 25.6693C59.4613 24.8622 60.5068 24.1245 61.5945 23.4616C62.6823 22.7988 63.6222 22.1894 64.4248 21.6441C65.5442 20.9332 66.6055 20.1634 67.6141 19.3402C68.6226 18.517 69.515 17.6189 70.2964 16.646C71.0779 15.6732 71.701 14.6094 72.1657 13.4441C72.6303 12.2787 72.8627 10.9851 72.8627 9.56319C72.8627 7.98091 72.5987 6.58572 72.0706 5.38832C71.5426 4.19091 70.8086 3.19664 69.8635 2.4055C68.9183 1.61436 67.82 1.01565 66.558 0.609393C65.296 0.203131 63.9284 0 62.4605 0C60.6388 0 59.0494 0.299351 57.6924 0.898053C56.3354 1.49675 55.2054 2.33066 54.313 3.39443C53.4154 4.46354 52.7553 5.73043 52.3223 7.2058C51.8894 8.68118 51.6887 10.2848 51.7257 12.0328H54.746C54.7143 10.7713 54.8358 9.57388 55.1051 8.44063C55.3743 7.30737 55.8179 6.30775 56.4251 5.43108C57.0324 4.55976 57.8244 3.86483 58.796 3.34632C59.7728 2.8278 60.9451 2.57121 62.3179 2.57121C63.3423 2.57121 64.3086 2.72623 65.2168 3.03093C66.125 3.34097 66.9276 3.79 67.6141 4.3887C68.3005 4.9874 68.8444 5.71439 69.2457 6.56968C69.647 7.42497 69.8423 8.40855 69.8423 9.50439C69.8423 10.8622 69.61 12.0382 69.1453 13.0218C68.6807 14.0107 67.989 14.9729 67.0596 15.9084C66.1303 16.8438 65.0848 17.7258 63.9179 18.5544C62.7509 19.3776 61.5787 20.1901 60.3959 20.9813C59.2131 21.7724 58.062 22.601 56.9426 23.4563C55.8232 24.3116 54.8146 25.2577 53.9223 26.2948C53.0299 27.3318 52.3065 28.4971 51.7679 29.7908C51.224 31.0844 50.9389 32.5758 50.9072 34.2543H73.0052V31.4372H54.3605L54.3553 31.4479Z" fill="#336AE5"/><path d="M7.5033 49.2967H7.83595C8.03661 49.2967 8.10525 49.2111 8.10525 49.0561V44.6942C8.10525 44.5498 8.04717 44.4536 7.86764 44.4536H7.5033V43.3845H10.8827C12.377 43.3845 13.1638 44.2665 13.1638 45.2554C13.1638 45.8488 12.9262 46.362 12.4245 46.7094V46.7575C13.1215 47.0943 13.3908 47.6128 13.3908 48.2917C13.3908 49.6281 12.3295 50.3658 10.7876 50.3658H7.5033V49.2967ZM9.8055 44.5605V46.2551H10.6873C11.2523 46.2551 11.453 45.8167 11.453 45.3837C11.453 44.9507 11.1731 44.5605 10.5342 44.5605H9.8055ZM9.8055 47.3349V49.1791H10.5817C11.3843 49.1791 11.6378 48.7354 11.6378 48.2276C11.6378 47.7197 11.4002 47.3349 10.756 47.3349H9.8055Z" fill="white"/><path d="M14.3413 43.9618H13.9664V42.9622H16.1894V49.1577C16.1894 49.3234 16.2739 49.3608 16.4112 49.3608H16.8125V50.3604H13.9664V49.3608H14.3413C14.4839 49.3608 14.5789 49.3341 14.5789 49.1684V44.2024C14.5789 44.0099 14.505 43.9618 14.3413 43.9618Z" fill="white"/><path d="M19.3418 50.478C18.4969 50.478 17.763 50.0878 17.763 48.869V46.2604C17.763 46.084 17.6785 46.0466 17.5412 46.0466H17.2032V45.047H19.3682V48.559C19.3682 49.0134 19.5319 49.2165 19.912 49.2165C20.25 49.2165 20.6777 49.0775 21.0315 48.8583V46.1642C21.0051 46.0573 20.91 46.0466 20.7991 46.0466H20.4242V45.047H22.6367V48.9866C22.6367 49.2593 22.7528 49.3662 22.9904 49.3662H23.2492V50.3658C23.0168 50.4139 22.6578 50.4513 22.3304 50.4513C21.8393 50.4513 21.3641 50.3711 21.1423 49.858C20.7305 50.1466 19.9912 50.478 19.3312 50.478" fill="white"/><path d="M23.7771 47.7037C23.7771 45.8328 24.8384 44.9187 26.412 44.9187C28.2601 44.9187 28.7511 46.1214 28.7511 47.4525V48.0351H25.4826C25.4932 48.9278 25.8681 49.2967 26.6918 49.2967C27.0667 49.2967 27.6317 49.1791 27.901 48.6285H28.6561V50.013C28.0119 50.3123 27.0826 50.478 26.5017 50.478C24.7751 50.478 23.7824 49.6174 23.7824 47.7037M27.2515 47.105C27.2515 46.5544 27.0878 46.0092 26.3697 46.0092C25.7361 46.0092 25.4615 46.5116 25.4615 47.105H27.2515Z" fill="white"/><path d="M29.6752 46.0466H29.3003V45.047H31.4863V45.512C32.0302 45.1432 32.5794 44.9294 33.1707 44.9294C34.1687 44.9294 35.0558 45.5281 35.0558 47.5754C35.0558 49.7297 34.0684 50.4674 32.7378 50.4674C32.3576 50.4674 31.9404 50.4406 31.5233 50.3391V51.3494H32.1464V52.349H29.3003V51.3494H29.6752C29.8178 51.3494 29.9181 51.3226 29.9181 51.1462V46.2497C29.9181 46.084 29.8336 46.0466 29.6752 46.0466ZM31.5339 46.5116V49.1898C31.7451 49.2593 32.0249 49.3074 32.2309 49.3074C33.1813 49.3074 33.4084 48.8049 33.4084 47.6502C33.4084 46.4956 33.0915 46.1375 32.553 46.1375C32.2678 46.1375 31.8824 46.2657 31.5286 46.517" fill="white"/><path d="M36.3231 46.2871C36.3231 46.0947 36.2439 46.0466 36.075 46.0466H35.7001V45.047H37.8386V45.9397C38.6623 45.1646 39.2643 44.9775 39.5705 44.9775V46.6079C39.0055 46.7041 38.3613 46.8324 37.9336 46.9393V49.3662H38.5461V50.3658H35.7106V49.3662H36.0855C36.2492 49.3662 36.3231 49.3287 36.3231 49.1363V46.2925V46.2871Z" fill="white"/><path d="M42.4694 49.3715H42.7862V50.3818C42.4588 50.4406 42.1631 50.462 41.9149 50.462C40.9064 50.462 40.5632 50.0825 40.5632 49.2593V46.2925C40.5632 46.1 40.484 46.0519 40.315 46.0519H39.9507V45.0523H42.1737V48.992C42.1737 49.2325 42.2423 49.3822 42.4694 49.3822M40.5368 42.9622H42.1948V44.2131H40.5368V42.9622Z" fill="white"/><path d="M48.8215 49.131C48.8215 49.3234 48.9007 49.3662 49.0591 49.3662H49.434V50.3658H46.6672V49.3662H47.211V46.8324C47.211 46.3673 46.9734 46.1642 46.5616 46.1642C46.2659 46.1642 45.8329 46.3513 45.5372 46.5437V49.3662H46.0863V50.3658H43.3195V49.3662H43.6944C43.858 49.3662 43.932 49.3288 43.932 49.131V46.2871C43.932 46.0947 43.8528 46.0466 43.6944 46.0466H43.3195V45.047H45.4685V45.5227C46.0018 45.1432 46.6355 44.924 47.2902 44.924C48.114 44.924 48.8321 45.3517 48.8321 46.5223V49.131H48.8215Z" fill="white"/><path d="M51.9316 48.5376C51.9316 49.0615 52.2273 49.2165 52.6867 49.2165C52.8874 49.2165 53.125 49.1791 53.3204 49.1096V50.3016C52.9085 50.4086 52.3805 50.478 51.9422 50.478C51.298 50.478 50.3212 50.2963 50.3212 48.9759V46.0947H49.7456V45.1806C50.4426 45.0844 50.6961 44.6942 50.7911 43.8121H51.9316V45.0416H53.4735V46.0893H51.9316V48.5323V48.5376Z" fill="white"/><path d="M56.3671 50.0985V48.4895H57.307C57.439 49.0347 57.8931 49.3234 58.4845 49.3234C59.0231 49.3234 59.567 49.0134 59.567 48.0939C59.567 47.2867 59.097 46.9607 58.569 46.9607C58.2152 46.9607 57.8403 47.1264 57.5552 47.415H56.4041V43.3792H60.924V44.6674H57.7136V46.2123C58.0885 45.9717 58.5637 45.8328 59.0442 45.8328C60.1055 45.8328 61.2197 46.4849 61.2197 48.0137C61.2197 49.751 60.0316 50.478 58.4687 50.478C57.8561 50.478 57.0219 50.3444 56.3618 50.0985" fill="white"/><path d="M65.6867 49.2005L66.0722 48.3666H66.8748V50.3658H61.9589V49.7083C61.9589 46.8645 65.2326 47.0034 65.2326 45.3944C65.2326 44.8813 64.8577 44.4269 64.1977 44.4269C63.4426 44.4269 63.1258 44.8331 63.0466 45.3463H62.1067V43.6037C62.8143 43.3792 63.5905 43.2722 64.1924 43.2722C65.6656 43.2722 66.8854 43.7747 66.8854 45.3944C66.8854 47.5861 63.6116 47.8855 63.6116 49.2058H65.6815L65.6867 49.2005Z" fill="white"/></g><defs><clipPath id="clip0_175_15"><rect width="73" height="56" fill="white"/></clipPath></defs></svg>