<svg xmlns="http://www.w3.org/2000/svg" width="461" height="64" fill="none"><g clip-path="url(#a)"><path fill="#6C757D" fill-rule="evenodd" d="M36.9.2c-8.6 0-16.4 2.3-22.4 7.1C7.8 12.6 3.9 20.7 4 29.3 3.8 38.4 8.2 47 15.8 52.2c6.1 4 13.2 5.5 20.8 5.4 4.4 0 8.8-.7 13.1-1.9.9-.3 1.9-.6 2.9-.8 1.2-1.6 3.4-7.1 4-11.4-.6-.6-1.5-.7-2.2-.3-1.9 4.9-6.7 11.9-17.4 11.9-13.6 0-24.6-9.6-24.6-27.1 0-17.2 10.7-25.2 23.5-25.2 12 0 15.8 6.5 17 12.1.6.5 1.6.4 2.2-.2-.7-5.1-1.1-10.3-1.2-12.2-.8.1-1.6 0-2.3-.3C46.8 1 41.9.3 36.9.2Zm40.6 53.6c-6.3 0-7.7-3.9-7.7-9.6l-.1-14c-.1-2.4 0-4.8.2-7.2 0-.4-.3-.5-.8-.6-2.9 1-5.9 1.5-8.9 1.5l-.1.1c-.5.5-.6 1.3-.1 1.8l1 .4c2.5 1.1 2.5 1.9 2.5 7.1v13.8c0 6.7 2.7 10.4 10 10.4 4.788 0 8.813-2.578 11.327-4.189L85 53.2c.6 0 .8.4.8 1.2v3.4c.2.4.6.6 1 .6 2.328-1.33 6.109-2.108 9.156-2.734.618-.127 1.205-.248 1.744-.366.7-.3.6-2 .1-2.4-1 .2-2.1.4-3.2.4-2.4 0-2.6-2.5-2.6-9.1V30.3c0-3.1.1-5.7.3-7.3-.1-.4-.4-.5-.8-.6-1.8.8-6.4 1.4-9.7 1.5l-.3.3c-.4.5-.3 1.2.2 1.6l1.1.4.055.022c2.454.981 3.045 1.218 3.045 6.578v13.6c0 2.6-.6 3.8-1.7 4.8-1.9 1.6-4.2 2.5-6.7 2.6Zm29.6-21.3c0-3.2 0-3.7-2.2-5.2l-.8-.5c-.3-.4-.3-1.1.1-1.5 2.9-1.2 5.7-2.5 8.4-4.1.4.1.7.2.7.6v4.8c0 .4.1.7.2.7 2.9-2.4 6.1-5 9.1-5 1.9-.2 3.6 1.2 3.7 3.1v.2c.1 2-1.5 3.8-3.6 3.8-.7 0-1.3-.2-1.8-.6-1.1-.8-2.3-1.3-3.7-1.3-1.2 0-2.3.7-3 1.7-.8 1.2-1.1 3.6-1.1 6.4v11.3c0 6 .2 7 3.3 7.2l3 .2c.5.6.5 1.5-.1 2.1-3.9-.2-6.3-.2-9.2-.2-2.9 0-5.5.1-7.7.2-.6-.5-.7-1.4-.2-2.1l1.6-.2c3.1-.5 3.2-1.2 3.2-7.2V32.5h.1Zm25.1-5.2c2.2 1.5 2.2 2 2.2 5.2h.1v14.3c0 6-.1 6.7-3.2 7.2l-1.6.2c-.5.7-.4 1.6.2 2.1 2.1-.1 4.7-.2 7.6-.2 2.9 0 5.3 0 9.2.2.6-.5.6-1.4.1-2l-3-.2c-3.1-.2-3.3-1.2-3.3-7.2V35.6c0-2.8.3-5.2 1.1-6.4.7-1 1.8-1.7 3-1.7 1.4 0 2.6.5 3.7 1.3.5.4 1.1.6 1.8.6 2 0 3.6-1.8 3.5-3.8v-.2c-.1-1.9-1.8-3.3-3.7-3.1-3 0-6.2 2.6-9.1 5-.1 0-.2-.3-.2-.7v-4.8c0-.4-.3-.5-.7-.6-2.7 1.6-5.5 2.9-8.4 4.1-.4.4-.4 1.1-.1 1.5l.8.5ZM173 39.2c1.2-.4 1.4-1.2 1.4-2.4l.1-3.8c.1-3.1-.9-7.2-6.1-7.2-2.3 0-5.1 1.2-5.3 3.7-.1 1.3-.2 2.3-.8 2.8-1.4 1-3 1.5-4.7 1.6-.5.1-1.1-.3-1.2-.8v-.4c0-4.3 9.4-10.2 15.5-10.2s8.9 3.5 8.6 9.7l-.5 14.5c-.2 3.8.6 7.2 3.8 7.2.7 0 1.4-.2 2.1-.5.151-.075.301-.179.446-.279.241-.166.467-.321.654-.321.3 0 .6.5.6 1.1 0 .4-2.9 3.7-7 3.7-2.1.1-4.1-.9-5.4-2.6-.3-.5-.8-1.2-1.3-1.2-.343 0-.968.376-1.843.903-.401.241-.854.514-1.357.797l-.176.098c-1.748.972-3.599 2.002-5.824 2.002-2.1.1-4.2-.6-5.8-1.9-1.7-1.5-2.6-3.6-2.6-5.8 0-3.2 1.6-5.2 6.9-7.1l9.8-3.6Zm-5.1 14.6c1.9-.2 3.6-.9 5.1-2.1.934-.934.996-2.041 1.081-3.568l.019-.332.2-4.9c0-.9-.3-1.1-.8-1.1-1.2.2-2.3.4-3.4.8-4.9 1.7-7.3 2.9-7.3 6.2 0 2.8 2.3 5 5 5h.1Zm25-26.5c2.2 1.5 2.2 2 2.2 5.2v14.6c0 6 0 6.8-3.1 7.2l-1.8.2c-.5.6-.4 1.5.2 2 2.3-.1 4.8-.2 7.8-.2s5.4 0 7.6.2c.6-.5.6-1.4.1-2l-1.5-.2c-2.9-.5-3.1-1.2-3.1-7.2V34.4c0-2.4.1-3.6 1.2-5 1.2-1.6 3.9-2.9 7.1-2.9 5.6 0 7.8 3.5 7.8 8.2v12.2c0 6-.1 6.7-3.2 7.2l-1.6.2c-.5.7-.4 1.6.2 2.1 2.2-.1 4.8-.2 7.7-.2 2.9 0 5.3 0 7.8.2.6-.5.6-1.4.1-2l-1.8-.2c-3-.4-3.2-1.2-3.2-7.2V32.7c0-5.6-2.8-10.3-9.7-10.3-4.2 0-8.1 2-11.6 4.2h-.1c-.5 0-.8-.4-.8-.9 0-.7 0-2 .2-3.9-.2-.4-.5-.6-.9-.6-2.6 1.7-5.4 3-8.3 4.1-.4.4-.4 1.1-.1 1.5l.8.5ZM237 3.1h1.7v25.7h38.1V3.1h1.7v53.4h-1.7V30.3h-38.1v26.2H237V3.1Zm52.4 26.6v.2c0 14.5 10.4 27.5 26.5 27.5s26.5-12.9 26.5-27.5v-.2c0-14.6-10.3-27.5-26.5-27.5s-26.5 12.9-26.5 27.5Zm26.5-26.1c14.8 0 24.9 12.5 24.9 26.1v.2c-.1 13.8-10.1 26-24.9 26-14.8 0-24.9-12.4-24.9-26.1v-.2c0-13.7 10.1-26 24.9-26Zm37.3-.5h1.6l23.3 33.1 23.3-33.1h1.5v53.4h-1.7V5.9l-23.1 32.9h-.1L354.9 5.9v50.6h-1.7V3.1Zm100.1 0H416v53.3h37.7v-1.5h-36V30.4H450v-1.5h-32.3V4.6h35.6V3.1Z" clip-rule="evenodd"/></g><defs><clipPath id="a"><path fill="#fff" d="M0 .2h461v63H0z"/></clipPath></defs></svg>