<?xml version="1.0" encoding="UTF-8"?>
<svg id="Layer_1" data-name="Layer 1" xmlns="http://www.w3.org/2000/svg" viewBox="0 0 277.31 75.2">
  <defs>
    <style>
      .cls-1, .cls-2 {
        fill: #2d0554;
      }

      .cls-2 {
        stroke: #2d0554;
        stroke-miterlimit: 10;
        stroke-width: .15px;
      }
    </style>
  </defs>
  <path class="cls-1" d="M1.4,67.91c0,2.63,2.13,4.75,4.75,4.75h.74c2.63,0,4.75-2.13,4.75-4.75v-19.11c0-2.88,3.56-4.23,5.47-2.07l9.51,10.77,11.54,13.07c2.11,2.38,5.39,3.36,8.45,2.52h0c2.66-.73,3.64-4,1.82-6.08l-23.95-27.22c-.62-.7-.63-1.74-.04-2.46l23.27-28.36c1.3-1.59.77-3.97-1.08-4.85h0c-3.46-1.65-7.59-.73-10.03,2.22l-23.29,28.22c-.56.68-1.66.28-1.66-.6V6.87c0-2.63-2.13-4.75-4.75-4.75h-.74C3.53,2.12,1.4,4.25,1.4,6.87v61.04h0Z"/>
  <path class="cls-1" d="M67.69,74.16c7.56,0,13.46-2.5,17.68-7.49.45-.53,1.39-.23,1.39.47v.99c0,2.5,2.03,4.53,4.53,4.53h0c2.5,0,4.53-2.03,4.53-4.53v-28.55c0-2.25-.1-4.36-.29-6.32-.2-1.96-.72-3.81-1.57-5.57-1.63-3.55-4.21-6.14-7.75-7.76-3.5-1.66-7.61-2.49-12.35-2.49-6.11,0-11.01,1.36-14.71,4.08-2.47,1.82-4.39,4.06-5.78,6.72-1.19,2.27.27,4.88,2.72,5.65l.61.19c2.51.79,5.07-.76,6.75-2.79.75-.91,1.64-1.66,2.67-2.25,2.32-1.33,4.87-1.99,7.65-1.99,4.12,0,7.09.9,8.92,2.69,1.56,1.47,2.53,3.63,2.89,6.48.12.97-.6,1.83-1.57,1.96-3.72.53-7.36,1.08-10.93,1.65-4.12.63-7.71,1.39-10.78,2.29-4.08,1.33-7.19,3.3-9.31,5.92-2.12,2.62-3.19,5.95-3.19,10,0,2.92.67,5.61,2.01,8.06,1.37,2.42,3.38,4.38,6.03,5.87,2.68,1.46,5.96,2.19,9.85,2.19h0ZM69.5,65.65c-3.27,0-5.69-.76-7.25-2.29-1.54-1.53-2.3-3.33-2.3-5.42s.69-3.8,2.06-5.02c1.4-1.23,3.15-2.21,5.25-2.93,2.22-.66,4.84-1.24,7.84-1.74,2.46-.4,5.22-.84,8.3-1.3,1.17-.18,2.21.75,2.14,1.93-.04.63-.09,1.28-.14,1.96-.13,1.56-.41,2.95-.83,4.18-.39,1.76-1.22,3.45-2.5,5.07-1.24,1.62-2.93,2.97-5.05,4.03-2.09,1.03-4.59,1.54-7.5,1.54h0Z"/>
  <path class="cls-1" d="M101.5,67.91c0,2.63,2.13,4.75,4.75,4.75h.88c2.63,0,4.75-2.13,4.75-4.75v-23.2c0-4.25.6-7.63,1.81-10.15,1.24-2.55,2.88-4.39,4.9-5.52,2.03-1.13,4.26-1.69,6.71-1.69,2.81,0,5.1.58,6.86,1.74,1.76,1.16,3.12,2.69,4.07,4.58.95,1.89,1.59,3.95,1.91,6.17.36,2.19.54,4.33.54,6.42v21.66c0,2.63,2.13,4.75,4.75,4.75h.88c2.63,0,4.75-2.13,4.75-4.75v-25.09c0-1.66-.15-3.58-.44-5.77-.29-2.19-.85-4.43-1.67-6.72-.82-2.29-2.01-4.39-3.58-6.32-1.54-1.96-3.54-3.53-6.03-4.73-2.48-1.19-5.55-1.79-9.21-1.79s-7.22.7-10.19,2.09c-2.33,1.1-4.34,2.54-6.03,4.31-.44.46-1.27.16-1.27-.47h0c0-2.47-2.01-4.48-4.48-4.48h-.1c-2.53,0-4.58,2.05-4.58,4.58v44.39h0Z"/>
  <path class="cls-1" d="M177.76,74.16c3.33,0,6.31-.56,8.92-1.69,2.13-.91,4.02-2.1,5.68-3.58.44-.39,1.18-.09,1.18.5h0c0,1.81,1.47,3.28,3.28,3.28h1.27c2.52,0,4.56-2.04,4.56-4.56V5.79c0-2.63-2.13-4.75-4.75-4.75h-.79c-2.63,0-4.75,2.13-4.75,4.75v15.23c0,.62-.74.95-1.23.58-1.53-1.17-3.24-2.1-5.14-2.8-2.42-.9-5.1-1.34-8.04-1.34-4.97,0-9.26,1.24-12.89,3.73-3.59,2.45-6.37,5.82-8.33,10.1-1.96,4.25-2.94,9.07-2.94,14.48s.96,10.2,2.89,14.47c1.96,4.28,4.74,7.68,8.33,10.2,3.6,2.49,7.84,3.73,12.74,3.73h0ZM179.18,64.76c-3.27,0-5.98-.85-8.14-2.54s-3.76-3.96-4.8-6.82c-1.04-2.89-1.57-6.1-1.57-9.65s.52-6.7,1.57-9.55c1.08-2.85,2.71-5.12,4.9-6.82,2.19-1.69,4.98-2.54,8.38-2.54,4.84,0,8.38,1.76,10.64,5.27,2.26,3.51,3.38,8.06,3.38,13.63s-1.13,10.13-3.38,13.68-5.91,5.32-10.98,5.32h0Z"/>
  <path class="cls-1" d="M229.55,74.11c3.82,0,7.2-.7,10.15-2.09,2.36-1.1,4.38-2.54,6.08-4.31.44-.46,1.27-.16,1.27.48h0c0,2.47,2.05,4.48,4.52,4.48h0c2.52,0,4.6-2.04,4.6-4.56V23.7c0-2.63-2.13-4.75-4.75-4.75h-.83c-2.63,0-4.75,2.13-4.75,4.75v23.2c0,4.25-.6,7.64-1.81,10.2-1.21,2.52-2.84,4.34-4.9,5.47-2.03,1.13-4.27,1.69-6.72,1.69-2.81,0-5.1-.58-6.86-1.74-1.77-1.16-3.12-2.69-4.07-4.58-.95-1.89-1.6-3.93-1.96-6.12-.33-2.22-.49-4.38-.49-6.47v-21.66c0-2.63-2.13-4.75-4.75-4.75h-.88c-2.63,0-4.75,2.13-4.75,4.75v25.09c0,1.66.15,3.58.44,5.77.29,2.19.85,4.43,1.67,6.72s1.99,4.41,3.53,6.37c1.57,1.92,3.6,3.48,6.08,4.68,2.48,1.19,5.55,1.79,9.21,1.79h0Z"/>
  <path class="cls-2" d="M268.71,30.33c-1.01,0-1.96-.18-2.84-.55-.88-.37-1.65-.88-2.3-1.53s-1.16-1.42-1.53-2.3c-.37-.88-.55-1.83-.55-2.84s.18-1.98.55-2.85c.37-.87.88-1.63,1.53-2.28.65-.65,1.42-1.15,2.29-1.52.87-.37,1.82-.55,2.85-.55s1.98.18,2.85.55,1.63.87,2.28,1.52c.65.65,1.15,1.41,1.52,2.28.37.87.55,1.82.55,2.85s-.18,1.96-.55,2.84c-.37.88-.87,1.65-1.52,2.3s-1.41,1.16-2.28,1.53c-.87.37-1.82.55-2.85.55h0ZM268.71,29.61c.91,0,1.75-.16,2.54-.49.79-.33,1.47-.79,2.06-1.38.59-.59,1.04-1.28,1.37-2.07s.49-1.64.49-2.56-.16-1.77-.49-2.56c-.33-.79-.78-1.47-1.37-2.06-.59-.59-1.27-1.04-2.06-1.37s-1.63-.49-2.54-.49-1.77.16-2.56.49c-.79.33-1.47.78-2.06,1.37-.59.59-1.04,1.27-1.37,2.06-.33.79-.49,1.64-.49,2.56s.16,1.77.49,2.56c.33.79.78,1.48,1.37,2.07.59.59,1.27,1.05,2.06,1.38.79.33,1.64.49,2.56.49ZM266.43,27.45c-.28,0-.42-.15-.42-.44v-7.6c0-.16.04-.28.13-.37s.21-.13.37-.13h2.74c.87,0,1.53.21,2,.62.47.41.7,1.01.7,1.78s-.24,1.34-.71,1.75c-.47.41-1.14.61-2.01.61l.06-.18c.39,0,.72.08.99.24.27.16.49.43.65.82l.94,2.3c.07.17.07.32,0,.43-.07.11-.17.17-.32.17-.11,0-.19-.03-.26-.09-.07-.06-.12-.14-.16-.23l-1.04-2.48c-.15-.37-.37-.62-.66-.75-.29-.13-.65-.19-1.06-.19h-1.76l.22-.18v3.48c0,.29-.13.44-.4.44h0ZM266.83,22.97h2.32c.67,0,1.16-.13,1.49-.4.33-.27.49-.69.49-1.26s-.16-.98-.48-1.25c-.32-.27-.82-.41-1.5-.41h-2.32v3.32h0Z"/>
</svg>