<svg xmlns="http://www.w3.org/2000/svg" xmlns:xlink="http://www.w3.org/1999/xlink" id="Calque_1" x="0px" y="0px" viewBox="0 0 880.7 511.2" style="enable-background:new 0 0 880.7 511.2;" xml:space="preserve"><style type="text/css">	.st0{fill:#FFFFFF;stroke:#F59E16;stroke-width:4;stroke-miterlimit:10;}	.st1{fill:#FFFFFF;}	.st2{fill:#F59E16;}</style><g>	<path class="st0" d="M341.3,269.4"></path>	<path class="st0" d="M341.3,269.4"></path>	<path class="st1" d="M180.7,204v91c0,14.7,14.7,21.8,29.3,21.8c14.7,0,29.5-7.1,29.5-21.8v-91H261v91c0,28.9-25.7,43.3-51.1,43.3  c-25.5,0-50.9-14.4-50.9-43.3v-91H180.7z"></path>	<path class="st1" d="M317.5,238.7c3.2,0,6.7,0.2,11,1.1v18.1c-10.6-3.2-27.6,1.3-27.6,14.4V336h-20.5v-64.1  c0-13.8,7.5-23.9,17.9-29.1c2.8-1.5,6-2.4,9.3-3.2c0.4,0,0.7-0.2,1.1-0.2C310.6,238.9,314.7,238.7,317.5,238.7z"></path>	<path class="st1" d="M377.3,237.2c18.6,0.2,37.8,11.2,37.8,33.4v33.8c0,22.6-19.2,33.2-37.8,33.4c-19-0.2-38.2-10.8-38.2-33.4  v-33.8C339.1,248.4,358.3,237.4,377.3,237.2z M359.6,270.5v33.8c0,9.1,9.1,14.4,17.7,14.4c8,0,17.3-5.2,17.3-14.4v-33.8  c0-9.1-9.3-13.4-17.3-13.4C368.7,257.1,359.6,261.4,359.6,270.5z"></path>	<path class="st2" d="M288.1,482.7H156.8c-41.6,0-75.5-33.9-75.5-75.5V159.5c0-41.6,33.9-75.5,75.5-75.5h131.3  c41.6,0,75.5,33.9,75.5,75.5v36.2c4.4-1.3,9.1-2,13.7-2.1c5,0.1,9.9,0.9,14.6,2.5l-0.3-36.6c0-45.6-29.6-84.4-70.6-98.2  C307.8,19.7,282.4,0,236.2,0H104.9C47.8,0,1.3,46.5,1.3,103.6v247.7c0,45.8,15.9,74.7,57.1,88.3c13.6,41.3,52.6,71.1,98.3,71.1  h131.3c32.2,0,62-14.6,81.8-40l-22.1-17.2C333.3,472,311.6,482.7,288.1,482.7z M53.2,159.5v247.2c-22.6-13.1-23.9-27.5-23.9-55.4  V103.6c0-41.6,33.9-75.5,75.5-75.5h131.3c28.4,0,39,5,51.8,27.9H156.8C99.7,55.9,53.2,102.4,53.2,159.5z"></path>	<path class="st1" d="M458.4,336h-21.4V204h24l36.4,85.8l36.7-85.8h24.2v132h-21.6v-60.6l4.1-35.8h-1.9l-11.2,31.1l-21.6,47h-17  l-21.8-47l-11-31.7h-1.9l3.9,36.5V336z"></path>	<path class="st1" d="M647.8,318.3c-7.5,13.2-22,19.8-34.7,19.8c-19,0-38.2-11-38.2-33.2v-33.9c0-22.6,19.2-33.2,38.2-33.2  c18.5,0,37.7,10.6,37.7,33.2v26.3h-55.2v7.6c-0.4,15.8,27.2,19.8,35.1,3.5L647.8,318.3z M631,270.5c0-18.1-36.2-18.3-35.4,0.4v9.3  H631V270.5z"></path>	<path class="st1" d="M669.9,249.1c16.6-11.7,49.4-16.4,61,3.2c14.7-22,62.3-15.7,62.3,19V336h-20.3V272  c1.1-17.5-31.7-15.7-31.7-0.7V336H721v-65.1c0-13.6-19.8-16.2-30.9-9v74h-20.1V249.1z"></path>	<path class="st1" d="M823.3,305c9.9,17.2,35.8,18.6,36.5,3c0-7.1-8.4-9.1-15.1-10.6c-13.6-2.6-34.3-8-34.3-29.8  c0-21.4,19.6-29.5,36-29.5c10.3,0,22,4.5,31.5,13.8l-12.3,13.4c-10.6-10.6-33.7-11.6-34.9,0.6c-0.7,8.6,9.5,11.4,17.5,12.7  c15.5,2.6,31.7,8.6,31.9,29.1c0,37.5-56.9,40.6-72.2,7.3L823.3,305z"></path>	<path class="st1" d="M158.6,359.4c0,1.1-0.3,2.1-0.9,2.9c-0.6,0.8-1.6,1.1-2.9,1.1c-1.3,0-2.2-0.4-2.8-1.1  c-0.6-0.8-0.9-1.7-0.9-2.9c0-1.1,0.3-2.1,0.9-2.9c0.6-0.8,1.6-1.2,2.8-1.2c1.3,0,2.2,0.4,2.9,1.2  C158.3,357.3,158.6,358.3,158.6,359.4z M158.1,411.3h-6.7v-41h6.7V411.3z"></path>	<path class="st1" d="M178.8,370.3l0.2,3.8c2.5-3,5.8-4.5,9.9-4.5c4.6,0,7.8,2,9.6,6c2.6-4,6.2-6,10.8-6c7.6,0,11.4,4.7,11.6,14.2  v27.6h-6.7v-27c0-3-0.5-5.2-1.6-6.6c-1.1-1.5-2.9-2.2-5.4-2.2c-2,0-3.7,0.8-4.9,2.3c-1.3,1.6-2,3.6-2.2,6v27.5h-6.7V384  c-0.1-5.7-2.4-8.5-6.9-8.5c-3.4,0-5.8,1.7-7.2,5.1v30.8h-6.7v-41H178.8z"></path>	<path class="st1" d="M264.5,392.8c0,6.5-1.2,11.3-3.5,14.5c-2.3,3.2-5.6,4.8-9.9,4.8c-4.1,0-7.3-1.5-9.5-4.7v19.7h-6.7v-56.8h6.1  l0.3,4.6c2.3-3.5,5.5-5.3,9.7-5.3c4.5,0,7.9,1.6,10.1,4.7c2.2,3.1,3.4,7.8,3.5,14.1V392.8z M257.8,388.9c0-4.6-0.7-8-2.1-10.2  c-1.4-2.2-3.7-3.3-6.8-3.3c-3.2,0-5.6,1.6-7.3,4.8v21.4c1.6,3.1,4.1,4.7,7.4,4.7c3,0,5.3-1.1,6.7-3.3c1.4-2.2,2.2-5.5,2.2-10V388.9  z"></path>	<path class="st1" d="M284.2,411.3h-6.7v-58.2h6.7V411.3z"></path>	<path class="st1" d="M319.8,411.3c-0.4-0.9-0.7-2.4-0.9-4.5c-2.4,3.5-5.4,5.2-9.1,5.2c-3.7,0-6.6-1-8.7-3.1c-2.1-2.1-3.1-5-3.1-8.8  c0-4.2,1.4-7.5,4.3-9.9c2.8-2.5,6.7-3.7,11.6-3.8h4.9v-4.4c0-2.5-0.5-4.2-1.6-5.2c-1.1-1-2.7-1.5-5-1.5c-2,0-3.7,0.6-4.9,1.8  c-1.3,1.2-1.9,2.7-1.9,4.6h-6.7c0-2.1,0.6-4.1,1.9-6c1.2-1.9,2.9-3.4,5-4.5c2.1-1.1,4.4-1.6,7-1.6c4.2,0,7.4,1,9.6,3.1  c2.2,2.1,3.3,5.1,3.4,9.1v20.7c0,3.2,0.5,5.9,1.3,8.2v0.6H319.8z M310.8,406c1.6,0,3.2-0.5,4.7-1.4c1.5-0.9,2.6-2.1,3.3-3.4v-9.8  H315c-3.2,0.1-5.7,0.8-7.5,2.1c-1.8,1.4-2.8,3.3-2.8,5.8c0,2.3,0.5,4,1.4,5.1C307,405.4,308.6,406,310.8,406z"></path>	<path class="st1" d="M346.1,370.3l0.2,4.4c2.6-3.5,5.9-5.2,10-5.2c7.3,0,10.9,4.8,11,14.5v27.3h-6.7v-27c0-3.2-0.5-5.5-1.6-6.8  c-1.1-1.4-2.7-2-4.8-2c-1.7,0-3.2,0.6-4.5,1.7c-1.3,1.1-2.4,2.6-3.2,4.4v29.8h-6.7v-41H346.1z"></path>	<path class="st1" d="M390,360.3v9.9h6.2v5.4H390v25.5c0,1.6,0.3,2.8,0.8,3.7c0.5,0.8,1.4,1.2,2.7,1.2c0.9,0,1.8-0.2,2.7-0.5  l-0.1,5.7c-1.5,0.5-3.1,0.8-4.7,0.8c-2.7,0-4.7-0.9-6.1-2.9c-1.4-1.9-2.1-4.6-2.1-8v-25.5h-6.3v-5.4h6.3v-9.9H390z"></path>	<path class="st1" d="M429.2,411.3c-0.4-0.9-0.7-2.4-0.9-4.5c-2.4,3.5-5.4,5.2-9.1,5.2c-3.7,0-6.6-1-8.7-3.1c-2.1-2.1-3.1-5-3.1-8.8  c0-4.2,1.4-7.5,4.2-9.9c2.8-2.5,6.7-3.7,11.6-3.8h4.9v-4.4c0-2.5-0.5-4.2-1.6-5.2c-1.1-1-2.7-1.5-5-1.5c-2,0-3.7,0.6-4.9,1.8  c-1.3,1.2-1.9,2.7-1.9,4.6H408c0-2.1,0.6-4.1,1.9-6c1.2-1.9,2.9-3.4,5-4.5c2.1-1.1,4.4-1.6,7-1.6c4.2,0,7.4,1,9.6,3.1  c2.2,2.1,3.3,5.1,3.4,9.1v20.7c0,3.2,0.5,5.9,1.3,8.2v0.6H429.2z M420.2,406c1.6,0,3.2-0.5,4.7-1.4c1.5-0.9,2.6-2.1,3.3-3.4v-9.8  h-3.8c-3.2,0.1-5.7,0.8-7.5,2.1c-1.8,1.4-2.8,3.3-2.8,5.8c0,2.3,0.5,4,1.4,5.1C416.4,405.4,418,406,420.2,406z"></path>	<path class="st1" d="M478.8,392.8c0,6.4-1.2,11.2-3.5,14.5c-2.3,3.2-5.6,4.9-10,4.9c-4.4,0-7.6-1.9-9.8-5.6l-0.3,4.9h-6.1v-58.2  h6.7v21.7c2.2-3.5,5.4-5.3,9.5-5.3c4.5,0,7.9,1.6,10.1,4.8c2.2,3.2,3.4,8,3.4,14.4V392.8z M472.2,388.9c0-4.8-0.7-8.3-2-10.4  c-1.4-2.1-3.5-3.1-6.6-3.1c-3.5,0-6,1.9-7.7,5.6v19.5c1.7,3.7,4.3,5.5,7.8,5.5c3,0,5.2-1.1,6.5-3.2c1.3-2.1,2-5.4,2-9.9V388.9z"></path>	<path class="st1" d="M498.5,411.3h-6.7v-58.2h6.7V411.3z"></path>	<path class="st1" d="M527.6,412.1c-5.1,0-9-1.5-11.8-4.6c-2.7-3-4.1-7.5-4.2-13.4v-5c0-6.1,1.3-10.9,4-14.4  c2.7-3.5,6.4-5.2,11.2-5.2c4.8,0,8.4,1.5,10.8,4.6c2.4,3.1,3.6,7.8,3.6,14.3v4.4h-22.9v0.9c0,4.4,0.8,7.6,2.5,9.6c1.7,2,4,3,7.2,3  c2,0,3.7-0.4,5.2-1.1c1.5-0.7,2.9-1.9,4.2-3.5l3.5,4.3C538,410,533.6,412.1,527.6,412.1z M526.9,375.3c-2.8,0-4.8,1-6.2,2.9  c-1.3,1.9-2.1,4.9-2.3,8.9h16.2v-0.9c-0.2-3.9-0.9-6.7-2.1-8.3C531.3,376.1,529.4,375.3,526.9,375.3z"></path>	<path class="st1" d="M594.8,400.8c0-1.4-0.5-2.7-1.6-3.7c-1.1-1-3.2-2.2-6.3-3.6c-3.6-1.5-6.2-2.8-7.6-3.8  c-1.5-1.1-2.6-2.3-3.3-3.6c-0.7-1.3-1.1-3-1.1-4.8c0-3.3,1.2-6.1,3.7-8.3c2.5-2.2,5.6-3.3,9.4-3.3c4,0,7.2,1.2,9.6,3.5  c2.4,2.3,3.6,5.3,3.6,8.9h-6.7c0-1.8-0.6-3.4-1.8-4.7c-1.2-1.3-2.8-1.9-4.7-1.9c-2,0-3.5,0.5-4.6,1.5c-1.1,1-1.7,2.4-1.7,4.1  c0,1.4,0.4,2.5,1.2,3.3c0.8,0.8,2.8,1.9,5.9,3.3c5,2,8.4,3.9,10.2,5.7c1.8,1.9,2.7,4.2,2.7,7.1c0,3.6-1.2,6.4-3.7,8.6  c-2.5,2.1-5.7,3.2-9.9,3.2c-4.3,0-7.7-1.2-10.4-3.7c-2.6-2.5-4-5.5-4-9.3h6.7c0.1,2.3,0.8,4.1,2.1,5.4c1.3,1.3,3.2,1.9,5.5,1.9  c2.2,0,3.9-0.5,5.1-1.5C594.3,403.8,594.8,402.5,594.8,400.8z"></path>	<path class="st1" d="M612.7,388.9c0-6,1.5-10.7,4.3-14.2c2.9-3.5,6.7-5.2,11.5-5.2c4.7,0,8.6,1.7,11.5,5.1c2.9,3.4,4.4,8,4.5,13.8  v4.3c0,5.9-1.4,10.6-4.3,14.1c-2.9,3.5-6.7,5.2-11.5,5.2c-4.8,0-8.6-1.7-11.4-5c-2.9-3.4-4.4-7.9-4.5-13.7V388.9z M619.4,392.8  c0,4.2,0.8,7.5,2.5,10c1.6,2.4,3.9,3.6,6.7,3.6c5.9,0,9-4.3,9.1-12.8v-4.6c0-4.2-0.8-7.5-2.5-10c-1.7-2.4-3.9-3.7-6.7-3.7  c-2.8,0-5,1.2-6.6,3.7c-1.7,2.4-2.5,5.7-2.5,9.9V392.8z"></path>	<path class="st1" d="M664.3,411.3h-6.7v-58.2h6.7V411.3z"></path>	<path class="st1" d="M699.6,407.7c-2.2,2.9-5.5,4.4-9.8,4.4c-3.7,0-6.5-1.3-8.4-3.9c-1.9-2.6-2.9-6.3-2.9-11.2v-26.7h6.7v26.2  c0,6.4,1.9,9.6,5.8,9.6c4.1,0,6.9-1.8,8.4-5.5v-30.4h6.7v41h-6.4L699.6,407.7z"></path>	<path class="st1" d="M728.9,360.3v9.9h6.2v5.4h-6.2v25.5c0,1.6,0.3,2.8,0.8,3.7c0.5,0.8,1.4,1.2,2.7,1.2c0.9,0,1.8-0.2,2.7-0.5  l-0.1,5.7c-1.5,0.5-3.1,0.8-4.7,0.8c-2.6,0-4.7-0.9-6.1-2.9c-1.4-1.9-2.1-4.6-2.1-8v-25.5H716v-5.4h6.2v-9.9H728.9z"></path>	<path class="st1" d="M754.7,359.4c0,1.1-0.3,2.1-1,2.9c-0.6,0.8-1.6,1.1-2.9,1.1c-1.3,0-2.2-0.4-2.9-1.1c-0.6-0.8-0.9-1.7-0.9-2.9  c0-1.1,0.3-2.1,0.9-2.9c0.6-0.8,1.6-1.2,2.9-1.2c1.3,0,2.2,0.4,2.9,1.2C754.4,357.3,754.7,358.3,754.7,359.4z M754.2,411.3h-6.7  v-41h6.7V411.3z"></path>	<path class="st1" d="M767.2,388.9c0-6,1.5-10.7,4.3-14.2c2.9-3.5,6.7-5.2,11.5-5.2c4.8,0,8.6,1.7,11.5,5.1c2.9,3.4,4.4,8,4.5,13.8  v4.3c0,5.9-1.4,10.6-4.3,14.1c-2.9,3.5-6.7,5.2-11.5,5.2c-4.8,0-8.6-1.7-11.4-5c-2.9-3.4-4.4-7.9-4.5-13.7V388.9z M773.9,392.8  c0,4.2,0.8,7.5,2.5,10c1.7,2.4,3.9,3.6,6.7,3.6c5.9,0,9-4.3,9.1-12.8v-4.6c0-4.2-0.8-7.5-2.5-10c-1.7-2.4-3.9-3.7-6.7-3.7  c-2.7,0-5,1.2-6.6,3.7c-1.6,2.4-2.5,5.7-2.5,9.9V392.8z"></path>	<path class="st1" d="M817.8,370.3l0.2,4.4c2.6-3.5,5.9-5.2,10-5.2c7.2,0,10.9,4.8,11,14.5v27.3h-6.7v-27c0-3.2-0.5-5.5-1.6-6.8  c-1.1-1.4-2.7-2-4.8-2c-1.7,0-3.2,0.6-4.5,1.7c-1.3,1.1-2.4,2.6-3.2,4.4v29.8h-6.7v-41H817.8z"></path>	<path class="st1" d="M872.9,400.8c0-1.4-0.5-2.7-1.6-3.7c-1.1-1-3.2-2.2-6.3-3.6c-3.6-1.5-6.2-2.8-7.6-3.8  c-1.5-1.1-2.6-2.3-3.3-3.6c-0.7-1.3-1.1-3-1.1-4.8c0-3.3,1.2-6.1,3.6-8.3c2.5-2.2,5.6-3.3,9.4-3.3c4,0,7.2,1.2,9.6,3.5  c2.4,2.3,3.6,5.3,3.6,8.9h-6.7c0-1.8-0.6-3.4-1.9-4.7c-1.2-1.3-2.8-1.9-4.7-1.9c-2,0-3.5,0.5-4.6,1.5c-1.1,1-1.7,2.4-1.7,4.1  c0,1.4,0.4,2.5,1.2,3.3c0.8,0.8,2.8,1.9,5.9,3.3c5,2,8.4,3.9,10.2,5.7c1.8,1.9,2.7,4.2,2.7,7.1c0,3.6-1.2,6.4-3.7,8.6  c-2.5,2.1-5.7,3.2-9.9,3.2c-4.3,0-7.7-1.2-10.4-3.7c-2.7-2.5-4-5.5-4-9.3h6.8c0.1,2.3,0.8,4.1,2.1,5.4c1.3,1.3,3.2,1.9,5.5,1.9  c2.2,0,3.9-0.5,5.1-1.5C872.3,403.8,872.9,402.5,872.9,400.8z"></path></g></svg>